# xmcd CD database file
#
# Track frame offsets:
#	150
#	60615
#	134628
#	162301
#	214444
#
# Disc length: 3739 seconds
#
# Revision: 2
# Processed by: cddbd v1.4b41PL1 Copyright (c) Steve Scherf et al.
# Submitted via: Feurio! 1.50.2ß - http://www.feurio.com
#
DISCID=4d0e9905
DTITLE=Berliner Philharmoniker - Kararjan - BEETHOVEN - CD 3
DYEAR=1900
DGENRE=
TTITLE0=Symphony No. 3 Es-dur op.55 " Eroica" - 1. Allegro con brio
TTITLE1=Symphony No. 3 Es-dur op.55 " Eroica" - 2. Marcia funebre. Adagio assai
TTITLE2=Symphony No. 3 Es-dur op.55 " Eroica" - 3. Scherzo. Allegro viace
TTITLE3=Symphony No. 3 Es-dur op.55 " Eroica" - 4. Finale. Allegro Molto
TTITLE4=Ouvertüre "Leonore" III op. 72a - Adagio- Allegro
EXTD=
EXTT0=
EXTT1=
EXTT2=
EXTT3=
EXTT4=
PLAYORDER=
